General
Complete name                    : Mrs Harris.mkv
Format                           : Matroska
File size                        : 1.71 GiB
Duration                         : 1h 35mn
Overall bit rate                 : 2 568 Kbps


Video
ID                               : 1
Format                           : AVC
Codec ID                         : V_MPEG4/ISO/AVC
Duration                         : 1h 35mn
Bit rate                         : 2 069 Kbps
Nominal bit rate                 : 2 043 Kbps
Width                            : 708 pixels
Height                           : 572 pixels
Display aspect ratio             : 16:9
Original display aspect ratio    : 16:9
Frame rate                       : 25.000 fps
Resolution                       : 8 bits
Colorimetry                      : 4:2:0
Scan type                        : Progressive
Bits/(Pixel*Frame)               : 0.204
Stream size                      : 1.38 GiB (81%)
Writing library                  : x264 core 79


Audio
ID                               : 2
Format                           : AC-3
Format/Info                      : Audio Coding 3
Codec ID                         : A_AC3
Duration                         : 1h 35mn
Bit rate mode                    : Constant
Bit rate                         : 448 Kbps
Channel(s)                       : 6 channels
Channel positions                : Front: L C R, Surround: L R, LFE
Sampling rate                    : 48.0 KHz
Stream size                      : 305 MiB (17%)
Language                         : English

Text #1
Language                         : English

Text #2
Language                         : Italian

Text #3
Language                         : Croatian

Text #4
Language                         : Czech

Text #5
Language                         : Danish

Text #6
Language                         : Finnish

Text #7
Language                         : Greek

Text #8
Language                         : Norwegian

Text #9
Language                         : Polish

Text #10
Language                         : Portuguese

Text #11
Language                         : Slovenian

Text #12
Language                         : Swedish

Text #13
Language                         : Turkish


